<?xml version="1.0" encoding="utf-8"?>
<!-- Generator: Adobe Illustrator 20.0.0, SVG Export Plug-In . SVG Version: 6.00 Build 0)  -->
<svg version="1.1" id="Layer_1" xmlns="http://www.w3.org/2000/svg" xmlns:xlink="http://www.w3.org/1999/xlink" x="0px" y="0px"
	 viewBox="0 0 695.1 587.2" style="enable-background:new 0 0 695.1 587.2;" xml:space="preserve">
<style type="text/css">
	.st0{fill:#FFFFFF;}
</style>
<g>
	<path class="st0" d="M393.5,268.6c74,0,134.3-60.3,134.3-134.3S467.5,0,393.5,0S259.1,60.3,259.1,134.3
		C260,208.2,319.5,268.6,393.5,268.6z M393.5,8c69.2,0,126.3,56.3,126.3,126.3s-56.4,126.2-126.3,126.2
		c-69.2,0-126.3-56.3-126.3-126.3S324.3,8,393.5,8z"/>
	<path class="st0" d="M393.5,186.6c29,0,52.3-23.3,52.3-52.3S422.5,82,393.5,82c-29,0-52.3,23.3-52.3,52.3S364.6,186.6,393.5,186.6z
		 M393.5,90c24.1,0,44.3,20.1,44.3,44.3s-20.1,44.3-44.3,44.3c-24.1,0-44.3-20.1-44.3-44.3S369.3,90,393.5,90z"/>
	<path class="st0" d="M156.2,275.1c47.5,0,85.3-38.6,85.3-85.3s-38.6-85.3-85.3-85.3S71,143.2,71,189.8S109.6,275.1,156.2,275.1z
		 M156.2,112.6c42.6,0,77.3,34.6,77.3,77.3s-34.6,77.3-77.3,77.3s-77.3-34.6-77.3-77.3S113.6,112.6,156.2,112.6z"/>
	<path class="st0" d="M156.2,217.1c15.3,0,27.3-12.1,27.3-27.3c0-15.3-12.1-27.3-27.3-27.3c-15.3,0-27.3,12.1-27.3,27.3
		C128.9,205,141.7,217.1,156.2,217.1z M156.2,170.5c10.4,0,19.3,8.9,19.3,19.3c0,10.4-8.9,19.3-19.3,19.3
		c-10.4,0-19.3-8.9-19.3-19.3C136.9,179.4,145.8,170.5,156.2,170.5z"/>
	<path class="st0" d="M225.4,422.3h-86.9c-17.6,0-32.2,14.4-32.2,32.2v32.2c0,17.6,14.4,32.2,32.2,32.2h86.9
		c17.6,0,32.2-14.4,32.2-32.2v-32.2C257.6,435.9,243,422.3,225.4,422.3z M249.4,485.8c0,12.9-10.4,24.1-24.1,24.1h-86.9
		c-12.9,0-24.1-10.4-24.1-24.1v-32.2c0-12.9,10.4-24.1,24.1-24.1h86.9c12.9,0,24.1,10.4,24.1,24.1V485.8z"/>
	<path class="st0" d="M646.9,333c-21.8,0-85.3,24.1-104.6,31.4v-33.1c0-24.1-20.1-44.3-44.3-44.3H88.6c-24.1,0-44.3,20.1-44.3,44.3
		v10.4H29c-16.1,0-29,12.9-29,29v13.7c0,16.1,12.9,29,29,29h15.3v129.6c0,24.1,20.1,44.3,44.3,44.3H498c24.1,0,44.3-20.1,44.3-44.3
		v-43.4c19.3,7.2,82.8,31.4,104.6,31.4c26.5,0,48.3-21.8,48.3-48.3v-103C694.4,354.7,673.4,333,646.9,333z M44.4,405.4H29.1
		c-11.2,0-20.9-9.7-20.9-20.9v-13.7c0-11.2,9.7-20.9,20.9-20.9h15.3V405.4z M534.3,370L534.3,370v124.7l0,0v49.1
		c0,20.1-16.1,36.2-36.2,36.2H88.6c-20.1,0-36.2-16.1-36.2-36.2V409.4v-62.7v-14.4c0-20.1,16.1-36.2,36.2-36.2H498
		c20.1,0,36.2,16.1,36.2,36.2V370H534.3z M686.3,484.2c0,21.8-17.6,40.2-40.2,40.2c-20.9,0-90.1-26.5-104.6-32.2V374
		c13.7-5.7,82.8-32.2,104.6-32.2s40.2,17.6,40.2,40.2V484.2z"/>
</g>
</svg>
