<?xml version="1.0" encoding="utf-8"?>
<!-- Generator: Adobe Illustrator 20.0.0, SVG Export Plug-In . SVG Version: 6.00 Build 0)  -->
<svg version="1.1" id="Layer_1" xmlns="http://www.w3.org/2000/svg" xmlns:xlink="http://www.w3.org/1999/xlink" x="0px" y="0px"
	 viewBox="0 0 832 576.8" style="enable-background:new 0 0 832 576.8;" xml:space="preserve">
<style type="text/css">
	.st0{fill:#FFFFFF;}
</style>
<g>
	<path class="st0" d="M808.5,0H21.6C9.6,0,0,9.6,0,21.6v79v452.5c0,12,9.6,21.6,21.6,21.6h786.9c12,0,21.6-9.6,21.6-21.6V100.6V21.5
		C830.1,9.6,820.5,0,808.5,0z M8,21.5c0-7.2,6.4-13.5,13.5-13.5h786.9c7.2,0,13.5,6.4,13.5,13.5v75H8V21.5L8,21.5z M822.1,553.1
		c0,7.2-6.4,13.5-13.5,13.5H21.6c-7.2,0-13.5-6.4-13.5-13.5V104.6h814V553.1L822.1,553.1z"/>
	<path class="st0" d="M54.3,27.9c-13.5,0-24.8,11.1-24.8,24.8s11.1,24.8,24.8,24.8s24.8-11.2,24.8-24.8S67.8,27.9,54.3,27.9z
		 M54.3,69.4c-9.6,0-16.7-7.2-16.7-16.7s7.2-16.7,16.7-16.7S71,43.1,71,52.6S63.1,69.4,54.3,69.4z"/>
	<path class="st0" d="M120.6,27.9c-13.5,0-24.8,11.1-24.8,24.8s11.1,24.8,24.8,24.8s24.8-11.1,24.8-24.8
		C146.2,39.1,134.9,27.9,120.6,27.9z M120.6,69.4c-9.6,0-16.7-7.2-16.7-16.7s7.2-16.7,16.7-16.7s16.7,7.2,16.7,16.7
		S130.2,69.4,120.6,69.4z"/>
	<path class="st0" d="M187.6,27.9c-13.5,0-24.8,11.1-24.8,24.8s11.1,24.8,24.8,24.8c13.7,0,24.8-11.1,24.8-24.8
		C212.3,39.1,201.1,27.9,187.6,27.9z M187.6,69.4c-9.6,0-16.7-7.2-16.7-16.7s7.2-16.7,16.7-16.7c9.6,0,16.7,7.2,16.7,16.7
		S197.1,69.4,187.6,69.4z"/>
	<path class="st0" d="M68.7,443.7h7.2h97.4h60.7h97.4h67.1c2.4,0,4-1.5,4-4V176.3c0-2.4-1.5-4-4-4H69.5c-2.4,0-4,1.5-4,4v263.5
		C64.6,442.1,66.3,443.7,68.7,443.7z M179.6,435.7H82.3l71.8-124.4l71.8,124.4H179.6z M235.5,435.7l-28-48.7l44-76.7l71.8,124.4
		h-87.8L235.5,435.7L235.5,435.7z M72.7,180.3h320.8v255.4h-60.7l-77.4-134.8c-1.5-2.4-5.6-2.4-7.2,0l-45.5,78.2l-45.5-78.2
		c-0.8-1.5-2.4-1.5-3.2-1.5c-0.8,0-2.4,0.8-3.2,1.5L73.5,435.8h-0.8V180.3L72.7,180.3z"/>
	<path class="st0" d="M444.6,183.5h300.1c2.4,0,4-1.5,4-4s-1.5-4-4-4H444.6c-2.4,0-4,1.5-4,4S442.2,183.5,444.6,183.5z"/>
	<path class="st0" d="M444.6,224.2h268.9c2.4,0,4-1.5,4-4c0-2.4-1.5-4-4-4H444.6c-2.4,0-4,1.5-4,4
		C440.5,222.7,442.2,224.2,444.6,224.2z"/>
	<path class="st0" d="M444.6,265H704c2.4,0,4-1.5,4-4s-1.5-4-4-4H444.6c-2.4,0-4,1.5-4,4S442.2,265,444.6,265z"/>
	<path class="st0" d="M444.6,304.9h276.9c2.4,0,4-1.5,4-4c0-2.4-1.5-4-4-4H444.6c-2.4,0-4,1.5-4,4
		C440.7,303.3,442.2,304.9,444.6,304.9z"/>
	<path class="st0" d="M640.9,351.1H739c2.4,0,4-1.5,4-4s-1.5-4-4-4h-98.1c-2.4,0-4,1.5-4,4S638.4,351.1,640.9,351.1z"/>
	<path class="st0" d="M640.9,410.1h85.3c2.4,0,4-1.5,4-4s-1.5-4-4-4h-85.3c-2.4,0-4,1.5-4,4S638.4,410.1,640.9,410.1z"/>
	<path class="st0" d="M746.3,436.6c0-2.4-1.5-4-4-4H641c-2.4,0-4,1.5-4,4s1.5,4,4,4h101.2C743.9,440.5,746.3,438.9,746.3,436.6z"/>
	<path class="st0" d="M640.9,380.6h101.3c2.4,0,4-1.5,4-4s-1.5-4-4-4H640.9c-2.4,0-4,1.5-4,4S638.4,380.6,640.9,380.6z"/>
	<path class="st0" d="M347.3,470.1H115c-2.4,0-4,1.5-4,4c0,2.4,1.5,4,4,4h232.3c2.4,0,4-1.5,4-4
		C351.2,471.6,349.6,470.1,347.3,470.1z"/>
	<path class="st0" d="M312.9,496.4H149.4c-2.4,0-4,1.5-4,4s1.5,4,4,4h163.5c2.4,0,4-1.5,4-4S315.3,496.4,312.9,496.4z"/>
	<path class="st0" d="M444.6,443.7h158c2.4,0,4-1.5,4-4v-97.4c0-2.4-1.5-4-4-4h-158c-2.4,0-4,1.5-4,4v97.4
		C440.5,442.1,442.2,443.7,444.6,443.7z M448.6,346.4h150v89.4h-150V346.4z"/>
	<path class="st0" d="M329.6,288.9c24.8,0,45.5-20.7,45.5-45.5s-20.7-45.5-45.5-45.5c-24.8,0-45.5,20.7-45.5,45.5
		C284.2,268.2,305,288.9,329.6,288.9z M329.6,205.8c20.7,0,37.6,16.7,37.6,37.6S350.5,281,329.6,281c-20.7,0-37.6-16.7-37.6-37.6
		S309.7,205.8,329.6,205.8z"/>
	<path class="st0" d="M102.2,216.3h18.4c2.4,0,4-1.5,4-4s-1.5-4-4-4h-18.4c-2.4,0-4,1.5-4,4S99.8,216.3,102.2,216.3z"/>
	<path class="st0" d="M143,239.4h19.9c2.4,0,4-1.5,4-4c0-2.4-1.5-4-4-4H143c-2.4,0-4,1.5-4,4C138.9,237.8,140.5,239.4,143,239.4z"/>
	<path class="st0" d="M523.6,352.8c-20.7,0-38.3,16.7-38.3,38.3c0,20.7,16.7,38.3,38.3,38.3c20.7,0,38.3-16.7,38.3-38.3
		C561.2,370.3,544.3,352.8,523.6,352.8z M523.6,420.6c-16.7,0-30.3-13.5-30.3-30.3c0-16.7,13.5-30.3,30.3-30.3
		c16.7,0,30.3,13.5,30.3,30.3C553.1,406.9,540.3,420.6,523.6,420.6z"/>
	<path class="st0" d="M513.2,371.9c-1.5,0.8-1.5,2.4-1.5,3.2v31.9c0,1.5,0.8,2.4,1.5,3.2c0.8,0,1.5,0.8,1.5,0.8s1.5,0,1.5-0.8l28-16
		c1.5-0.8,1.5-2.4,1.5-3.2s-0.8-2.4-1.5-3.2l-28-16C515.7,371,514,371,513.2,371.9z M518.9,382.3l16,8.8l-16,8.8V382.3z"/>
	<path class="st0" d="M357.6,327.2h-27.1c-2.4,0-4,1.5-4,4s1.5,4,4,4h27.1c2.4,0,4-1.5,4-4S360,327.2,357.6,327.2z"/>
	<path class="st0" d="M453.3,504.3H506c9.6,0,17.5-7.9,17.5-17.5s-7.9-17.5-17.5-17.5h-52.6c-9.6,0-17.5,7.9-17.5,17.5
		C436.6,497.1,444.6,504.3,453.3,504.3z M453.3,478H506c4.7,0,9.6,4,9.6,9.6c0,4.7-4,9.6-9.6,9.6h-52.6c-4.7,0-9.6-4-9.6-9.6
		C444.6,482.1,448.6,478,453.3,478z"/>
	<path class="st0" d="M617.8,470.1h-52.6c-9.6,0-17.5,7.9-17.5,17.5c0,9.6,7.9,17.5,17.5,17.5h52.6c9.6,0,17.5-7.9,17.5-17.5
		C635.3,477.2,627.3,470.1,617.8,470.1z M617.8,496.4h-52.6c-4.7,0-9.6-4-9.6-9.6c0-4.7,4-9.6,9.6-9.6h52.6c4.7,0,9.6,4,9.6,9.6
		C627.3,492.4,623.4,496.4,617.8,496.4z"/>
	<path class="st0" d="M729.5,470.1h-52.6c-9.6,0-17.5,7.9-17.5,17.5c0,9.6,7.9,17.5,17.5,17.5h52.6c9.6,0,17.5-7.9,17.5-17.5
		C747.1,477.2,739,470.1,729.5,470.1z M729.5,496.4h-52.6c-4.7,0-9.6-4-9.6-9.6c0-4.7,4-9.6,9.6-9.6h52.6c4.7,0,9.6,4,9.6,9.6
		C739,492.4,735,496.4,729.5,496.4z"/>
	<path class="st0" d="M758.2,36.7H289c-2.4,0-4,1.5-4,4v23.1c0,2.4,1.5,4,4,4h469.3c2.4,0,4-1.5,4-4V40.6
		C762.3,38.3,760.6,36.7,758.2,36.7z M754.2,59.8H293V44.6h461.2V59.8z"/>
</g>
</svg>
