<?xml version="1.0" encoding="utf-8"?>
<!-- Generator: Adobe Illustrator 20.0.0, SVG Export Plug-In . SVG Version: 6.00 Build 0)  -->
<svg version="1.1" id="Layer_1" xmlns="http://www.w3.org/2000/svg" xmlns:xlink="http://www.w3.org/1999/xlink" x="0px" y="0px"
	 viewBox="0 0 541 541.9" style="enable-background:new 0 0 541 541.9;" xml:space="preserve">
<style type="text/css">
	.st0{fill:#FFFFFF;}
</style>
<g>
	<path class="st0" d="M538.6,156.8l-87.2-87.2v-1.8h-1.8h-1.1H338.6l-65.1-65V1H25.7C12,1,0.6,12.3,0.6,26.1v422.8
		c0,13.7,11.3,25.1,25.1,25.1h152.8v41.8c0,13.7,11.3,25.1,25.1,25.1h311.7c13.7,0,25.1-11.3,25.1-25.1v-359H538.6L538.6,156.8z
		 M530.3,156.8h-59.8c-10.7,0-19.1-9-19.1-19.1V78L530.3,156.8z M329.6,67.9h-56.7V11.1L329.6,67.9z M177.9,468.6H25.7
		c-10.7,0-19.1-9-19.1-19.1V26.7c0-10.7,9-19.1,19.1-19.1h241.8v60.9h-63.9c-13.7,0-25.1,11.3-25.1,25.1V99
		c-10.7-5.4-22.7-8.4-35.2-8.4l0,0l0,0c-43,0-78.2,35.2-78.2,78.2c0,5.4,0.6,11.3,1.8,16.1l0,0l0,0c2.4,12.5,8.4,23.9,16.7,34
		c14.9,17.9,37,28.1,59.7,28.1c12.5,0,24.5-3,35.2-8.4v74.7H47.8c-1.8,0-3,1.2-3,3s1.2,3,3,3h130.7v38.8H47.8c-1.8,0-3,1.2-3,3
		s1.2,3,3,3h130.7v38.8H47.8c-1.8,0-3,1.2-3,3s1.2,3,3,3h130.7L177.9,468.6L177.9,468.6z M71.1,168.2c0-38.8,30.5-70.5,69.3-71.7
		v69.3l-68.1,14.3C71.1,176.5,71.1,172.4,71.1,168.2z M132,173.6l-46,38.8c-6-7.8-10.2-16.7-12.5-26.3L132,173.6z M141.5,173
		l23.3,63.9l0,0c-7.2,2.4-14.3,3.6-22.1,3.6c-20.3,0-39.4-8.4-53.1-23.3L141.5,173z M170.2,235.1L170.2,235.1l-24.5-66.9
		c0,0,0,0,0-0.6l0,0V96.5c11.3,0.6,22.7,3.6,32.2,9v126C175.6,232.7,173.2,233.9,170.2,235.1z M534.4,515.7c0,10.7-9,19.1-19.1,19.1
		H203.6c-10.2,0-19.1-9-19.1-19.1v-41.8V92.4c0-10.7,8.4-19.1,19.1-19.1h66.9h3h63.9h108.1v63.9c0,13.7,11.3,25.1,25.1,25.1h63.9
		L534.4,515.7L534.4,515.7z"/>
	<path class="st0" d="M263.9,318.7H292c1.8,0,3-1.2,3-3V159.8c0-1.8-1.2-3-3-3h-28.1c-1.8,0-3,1.2-3,3v155.9
		C260.9,317.5,262.7,318.7,263.9,318.7z M266.9,162.8H289v149.9h-22.1V162.8z"/>
	<path class="st0" d="M315.9,318.7H344c1.8,0,3-1.2,3-3v-84.8c0-1.8-1.2-3-3-3h-28.1c-1.8,0-3,1.2-3,3v84.8
		C312.9,317.5,314.7,318.7,315.9,318.7z M318.9,233.9H341v78.8h-22.1V233.9z"/>
	<path class="st0" d="M222.7,382.6c0,1.8,1.2,3,3,3h266.9c1.8,0,3-1.2,3-3s-1.2-3-3-3H225.7C223.9,379.6,222.7,380.8,222.7,382.6z"
		/>
	<path class="st0" d="M492.6,423.8H225.7c-1.8,0-3,1.2-3,3s1.2,3,3,3h266.9c1.8,0,3-1.2,3-3S494.4,423.8,492.6,423.8z"/>
	<path class="st0" d="M492.6,468.6H225.7c-1.8,0-3,1.2-3,3s1.2,3,3,3h266.9c1.8,0,3-1.2,3-3S494.4,468.6,492.6,468.6z"/>
	<path class="st0" d="M367.8,318.7h28.1c1.8,0,3-1.2,3-3V202.2c0-1.8-1.2-3-3-3h-28.1c-1.8,0-3,1.2-3,3v113.5
		C364.9,317.5,366,318.7,367.8,318.7z M370.8,205.2h22.1v107.5h-22.1V205.2z"/>
	<path class="st0" d="M419.8,318.7h28.1c1.8,0,3-1.2,3-3v-99.1c0-1.8-1.2-3-3-3h-28.1c-1.8,0-3,1.2-3,3v99.1
		C416.8,317.5,418,318.7,419.8,318.7z M422.8,219.5h22.1v93.2h-22.1V219.5z"/>
</g>
</svg>
