<?xml version="1.0" encoding="utf-8"?>
<!-- Generator: Adobe Illustrator 20.0.0, SVG Export Plug-In . SVG Version: 6.00 Build 0)  -->
<svg version="1.1" id="Layer_1" xmlns="http://www.w3.org/2000/svg" xmlns:xlink="http://www.w3.org/1999/xlink" x="0px" y="0px"
	 viewBox="0 0 708 580.3" style="enable-background:new 0 0 708 580.3;" xml:space="preserve">
<style type="text/css">
	.st0{fill:#FFFFFF;}
</style>
<g>
	<path class="st0" d="M702.1,0.6C701.5,0,700.2,0,699.6,0L525.9,35.6L352.3,0l0,0l0,0l0,0c-0.6,0-0.6,0-1.2,0l-80,16.9l-93.7,19.4
		L3.7,0.6c-0.6,0-1.9,0-2.5,0.6S0,2.4,0,3.7v531.6c0,1.2,1.2,2.5,2.5,3.1l174.3,36.3h0.6h0.6l46.2-9.4l127.5-26.2l173.6,35.6h0.6
		h0.6l174.3-36.2c1.2,0,2.5-1.9,2.5-3.1V3.8C703.3,1.9,702.7,1.3,702.1,0.6z M174.3,329.2l-68.7-9.4c-0.6,0-1.2,0-1.2,0l-36.2,13.7
		L53.7,207.4l77.5-36.2l43.7,4.4v153.7L174.3,329.2L174.3,329.2z M174.3,169.3l-44.3-4.4c-0.6,0-1.2,0-1.9,0l-80,37.5
		c-1.2,0.6-1.9,1.9-1.9,3.1l15,132.4c0,1.2,0.6,1.9,1.2,2.5c0.6,0.6,1.9,0.6,2.5,0l39.4-15l69.3,9.4v231.1l-168-35V6.9l168,35
		L174.3,169.3L174.3,169.3z M180.5,174.3l26.2-38.7l78.7-36.9l50.6,2.5l-16.9,91.2v0.6l7.5,67.5l15.1,146.2l-82.5,111.2l-48.7-48.7
		L228,365.5c0-0.6,0-1.2,0-1.2l-22.5-70c-0.6-1.2-1.2-1.9-2.5-1.9c-1.2,0-2.5,0.6-3.1,1.2l-19.4,28.7L180.5,174.3L180.5,174.3z
		 M348.5,532.2l-125.6,26.2l-42.5,8.7v-233l20.6-31.2l20,63.1l-17.5,104.3c0,1.2,0,1.9,0.6,2.5l52.5,52.5c0.6,0.6,1.2,0.6,2.5,0.6
		l0,0c0.6,0,1.9-0.6,2.5-1.2l85.1-114.9c0.6-0.6,0.6-1.2,0.6-1.9l-15-147.4l-7.5-66.8l17.5-94.3c0-0.6,0-1.9-0.6-2.5
		c-0.6-0.6-1.2-1.2-2.5-1.2l-55-2.5c-0.6,0-1.2,0-1.2,0l-80,37.5c-0.6,0-0.6,0.6-1.2,1.2l-21.9,31.8V42.5l90.6-18.7L348,7.6v524.7
		L348.5,532.2L348.5,532.2z M522.8,567.2l-168-35V6.9l168,35V567.2z M697.1,532.2l-168,35V41.9l168-35V532.2z"/>
	<path class="st0" d="M485.3,391.7c-0.6-0.6-1.2-1.2-1.9-1.2c-0.6,0-1.9,0-2.5,0.6l-82.5,50c-0.6,0.6-1.2,1.2-1.2,1.9
		c0,0.6,0,1.9,0.6,2.5l50,75c0.6,0.6,1.2,1.2,1.9,1.2l47.5,12.5h0.6c0.6,0,1.2,0,1.9-0.6c0.6-0.6,1.2-1.2,1.2-1.9l15-82.5
		c0-0.6,0-1.2-0.6-1.9L485.3,391.7z M494.7,526.6l-43.1-11.2l-47.5-71.2l76.8-46.8l28.1,51.2L494.7,526.6z"/>
	<path class="st0" d="M379.8,359.8c0.6,1.2,1.2,1.9,2.5,1.9l0,0c1.2,0,1.9-0.6,2.5-1.2l37.5-55c0.6-0.6,0.6-1.9,0-3.1
		c-0.6-1.2-1.2-1.9-2.5-1.9l-30-5c-0.6,0-1.9,0-2.5,0.6l-27.5,22.5c-1.2,1.2-1.2,2.5-0.6,3.7L379.8,359.8z M391,301.1l23.7,3.7
		l-31.8,46.9l-16.2-30.6L391,301.1z"/>
	<path class="st0" d="M18.7,466l70,30c0.6,0,0.6,0,1.2,0s1.2,0,1.2-0.6c0.6-0.6,1.2-1.2,1.9-2.5l10-62.5c0-1.2,0-1.9-0.6-2.5
		s-1.9-1.2-2.5-0.6l-52.5,10c-0.6,0-1.2,0.6-1.2,0.6l-27.5,22.5c-0.6,0.6-1.2,1.9-1.2,3.1C16.8,464.7,17.5,465.4,18.7,466z
		 M48.7,443.5l47.5-8.7l-8.7,54.3l-61.8-26.2L48.7,443.5z"/>
	<path class="st0" d="M555.9,63.7h0.6l118.1-24.4c1.9-0.6,2.5-1.9,2.5-3.7c-0.6-1.9-1.9-2.5-3.7-2.5L555.3,57.5
		c-1.9,0.6-2.5,1.9-2.5,3.7C552.8,63.1,554.7,63.7,555.9,63.7z"/>
	<path class="st0" d="M555.9,88.7h0.6L645.8,70c1.9-0.6,2.5-1.9,2.5-3.7c-0.6-1.9-1.9-2.5-3.7-2.5l-89.3,18.7
		c-1.9,0.6-2.5,1.9-2.5,3.7C552.8,88.1,554.7,88.7,555.9,88.7z"/>
	<path class="st0" d="M555.9,116.2h0.6l84.9-17.5c1.9-0.6,2.5-1.9,2.5-3.7c-0.6-1.9-1.9-2.5-3.7-2.5L555.3,110
		c-1.9,0.6-2.5,1.9-2.5,3.7C552.8,115,554.7,116.2,555.9,116.2z"/>
	<path class="st0" d="M555.9,146.2h0.6L659.6,125c1.9-0.6,2.5-1.9,2.5-3.7c-0.6-1.9-1.9-2.5-3.7-2.5L555.3,140
		c-1.9,0.6-2.5,1.9-2.5,3.7C552.8,144.9,554.7,146.2,555.9,146.2z"/>
	<path class="st0" d="M555.9,175.5h0.6l118.1-25c1.9-0.6,2.5-1.9,2.5-3.7c-0.6-1.9-1.9-2.5-3.7-2.5l-118.1,24.4
		c-1.9,0.6-2.5,1.9-2.5,3.7C552.8,174.3,554.7,175.5,555.9,175.5z"/>
	<path class="st0" d="M673.3,495.4l-118,24.3c-1.9,0.6-2.5,1.9-2.5,3.7c0,1.2,1.9,2.5,3.1,2.5h0.6l118.1-24.4
		c1.9-0.6,2.5-1.9,2.5-3.7C676.5,496.6,674.6,495.4,673.3,495.4z"/>
	<path class="st0" d="M555.9,498.5h0.6l89.3-18.7c1.9-0.6,2.5-1.9,2.5-3.7c-0.6-1.9-1.9-2.5-3.7-2.5l-89.3,18.7
		c-1.9,0.6-2.5,1.9-2.5,3.7S554.7,498.5,555.9,498.5z"/>
	<path class="st0" d="M555.9,401h0.6l118.1-24.3c1.2,0,2.5-1.9,2.5-3.1V198c0-1.2-0.6-1.9-1.2-2.5c-0.6-0.6-1.9-0.6-2.5-0.6
		l-118.1,24.4c-1.2,0-2.5,1.9-2.5,3.1v175.5c0,1.2,0.6,1.9,1.2,2.5C554.7,401,555.3,401,555.9,401z M559,224.9l111.8-23.1v169.3
		L559,394.2V224.9z"/>
	<path class="st0" d="M659,221.1l-51.8,7.5c-0.6,0-1.2,0.6-1.9,1.2l-15.7,16.9c0,0,0,0,0,0.6l-22.5,33.1c-0.6,0.6-0.6,1.2-0.6,1.9
		l5,56.8c0,1.2,0.6,1.9,1.9,2.5c1.2,0.6,1.9,0.6,3.1,0l23.1-15.6v30.7c0,1.2,0.6,1.9,1.2,2.5l23.7,16.9c0.6,0.6,1.2,0.6,1.9,0.6
		c0.6,0,1.2,0,1.9-0.6l16.9-12.5c0.6-0.6,1.2-1.2,1.2-1.9l8.1-34.4v-0.6v-81.2l8.1-19.4c0.6-1.2,0-2.5-0.6-3.1
		C661.5,221.1,660.2,220.5,659,221.1z M648.3,242.4c0,0.6,0,0.6,0,1.2v81.2l-8.1,32.5l-13.7,10.6l-20.6-14.4v-34.4
		c0-1.2-0.6-2.5-1.9-2.5c-1.2-0.6-2.5-0.6-3.1,0l-23.7,15.6l-4.4-50.6l21.9-31.9l15-15.6l45-6.2L648.3,242.4z"/>
	<path class="st0" d="M477.8,149.9c0.6,0.6,1.2,1.2,2.5,1.2l0,0c1.2,0,1.9-0.6,2.5-1.9l18.1-35l13.8-27.4c0.6-1.2,0.6-1.9,0-3.1
		c-0.6-0.6-1.9-1.2-2.5-1.2h-20.6c-0.6,0-1.2,0-1.9,0.6l-37.5,27.5c-0.6,0.6-1.2,1.2-1.2,1.9c0,0.6,0,1.9,0.6,2.5L477.8,149.9z
		 M492.2,88.7h15L496,111.2l-16.3,30.6l-21.2-28.1L492.2,88.7z"/>
</g>
</svg>
