<?xml version="1.0" encoding="utf-8"?>
<!-- Generator: Adobe Illustrator 20.0.0, SVG Export Plug-In . SVG Version: 6.00 Build 0)  -->
<svg version="1.1" id="Layer_1" xmlns="http://www.w3.org/2000/svg" xmlns:xlink="http://www.w3.org/1999/xlink" x="0px" y="0px"
	 viewBox="0 0 773.3 533.3" style="enable-background:new 0 0 773.3 533.3;" xml:space="preserve">
<style type="text/css">
	.st0{fill:#FFFFFF;}
</style>
<g>
	<path class="st0" d="M292.9,212.3h264.2c1.9,0,3.1-1.2,3.1-3.1V43.7c0-1.9-1.2-3.1-3.1-3.1H292.9c-1.9,0-3.1,1.2-3.1,3.1v165.5
		C289.7,211.1,291,212.3,292.9,212.3z M296,46.8h258v159.3H296L296,46.8L296,46.8z"/>
	<path class="st0" d="M292.9,432.8h117.4c1.9,0,3.1-1.2,3.1-3.1V326.6c0-1.9-1.2-3.1-3.1-3.1H292.9c-1.9,0-3.1,1.2-3.1,3.1v103.1
		C289.7,431.6,291,432.8,292.9,432.8z M296,329.7h111.2v96.8H296V329.7z"/>
	<path class="st0" d="M557.1,263.5H439.6c-1.9,0-3.1,1.2-3.1,3.1s1.2,3.1,3.1,3.1H557c1.9,0,3.1-1.2,3.1-3.1
		S558.3,263.5,557.1,263.5z"/>
	<path class="st0" d="M557.1,289.1H439.6c-1.9,0-3.1,1.2-3.1,3.1s1.2,3.1,3.1,3.1H557c1.9,0,3.1-1.2,3.1-3.1
		S558.3,289.1,557.1,289.1z"/>
	<path class="st0" d="M557.1,237.9H439.6c-1.9,0-3.1,1.2-3.1,3.1s1.2,3.1,3.1,3.1H557c1.9,0,3.1-1.2,3.1-3.1
		S558.3,237.9,557.1,237.9z"/>
	<path class="st0" d="M557.1,349.1H439.6c-1.9,0-3.1,1.2-3.1,3.1s1.2,3.1,3.1,3.1H557c1.9,0,3.1-1.2,3.1-3.1
		S558.3,349.1,557.1,349.1z"/>
	<path class="st0" d="M557.1,323.5H439.6c-1.9,0-3.1,1.2-3.1,3.1s1.2,3.1,3.1,3.1H557c1.9,0,3.1-1.2,3.1-3.1
		S558.3,323.5,557.1,323.5z"/>
	<path class="st0" d="M557.1,400.9H439.6c-1.9,0-3.1,1.2-3.1,3.1s1.2,3.1,3.1,3.1H557c1.9,0,3.1-1.2,3.1-3.1
		S558.3,400.9,557.1,400.9z"/>
	<path class="st0" d="M557.1,375.3H439.6c-1.9,0-3.1,1.2-3.1,3.1s1.2,3.1,3.1,3.1H557c1.9,0,3.1-1.2,3.1-3.1
		S558.3,375.3,557.1,375.3z"/>
	<path class="st0" d="M292.9,459h264.2c1.9,0,3.1-1.2,3.1-3.1s-1.2-3.1-3.1-3.1H292.9c-1.9,0-3.1,1.2-3.1,3.1S291,459,292.9,459z"/>
	<path class="st0" d="M292.9,484.6h264.2c1.9,0,3.1-1.2,3.1-3.1c0-1.9-1.2-3.1-3.1-3.1H292.9c-1.9,0-3.1,1.2-3.1,3.1
		C289.7,483.4,291,484.6,292.9,484.6z"/>
	<path class="st0" d="M557.1,426.6H439.6c-1.9,0-3.1,1.2-3.1,3.1s1.2,3.1,3.1,3.1H557c1.9,0,3.1-1.2,3.1-3.1
		S558.3,426.6,557.1,426.6z"/>
	<path class="st0" d="M292.9,269.8h117.4c1.9,0,3.1-1.2,3.1-3.1s-1.2-3.1-3.1-3.1H292.9c-1.9,0-3.1,1.2-3.1,3.1
		S291,269.8,292.9,269.8z"/>
	<path class="st0" d="M292.9,295.4h117.4c1.9,0,3.1-1.2,3.1-3.1s-1.2-3.1-3.1-3.1H292.9c-1.9,0-3.1,1.2-3.1,3.1
		S291,295.4,292.9,295.4z"/>
	<path class="st0" d="M292.9,244.2h117.4c1.9,0,3.1-1.2,3.1-3.1s-1.2-3.1-3.1-3.1H292.9c-1.9,0-3.1,1.2-3.1,3.1
		S291,244.2,292.9,244.2z"/>
	<g>
		<path class="st0" d="M317.2,156.7l5.6-0.6l24.4-69.3h16.2l24.4,69.3l5.6,0.6v9.4h-26.8v-9.4l5.6-1.2l-3.7-11.2h-25.6l-3.7,11.2
			l5.6,1.2v9.4h-26.9L317.2,156.7L317.2,156.7z M345.9,133H364l-8.7-28.1h-0.6L345.9,133z"/>
		<path class="st0" d="M459,111.7h-11.9l-1.9-11.2c-1.2-0.6-3.1-1.9-6.2-2.5s-5.6-1.2-8.7-1.2c-4.4,0-7.5,0.6-10,2.5
			s-3.7,4.4-3.7,6.9s1.2,5,3.7,6.9s6.9,3.7,13.1,5.6c8.7,2.5,15.6,5.6,20,10c4.4,3.7,6.9,9.4,6.9,15.6c0,6.9-2.5,12.5-8.1,16.2
			s-12.5,5.6-21.2,5.6c-6.2,0-11.9-1.2-16.9-3.1c-5-1.9-9.4-5-12.5-8.1V138h12.5l1.9,11.2c1.9,1.2,3.7,2.5,6.2,3.1s5.6,1.2,9.4,1.2
			c4.4,0,7.5-0.6,10-2.5s3.1-4.4,3.1-6.9c0-3.1-1.2-5.6-3.1-7.5s-6.2-3.7-11.2-5c-9.4-2.5-16.9-6.2-21.2-10c-5-3.7-7.5-8.7-7.5-15.6
			c0-6.2,2.5-11.9,8.1-15.6c5.6-4.4,12.5-6.2,20.6-6.2c6.2,0,11.9,0.6,16.9,2.5s9.4,4.4,12.5,7.5v17.5L459,111.7L459,111.7z"/>
		<path class="st0" d="M532.7,157.3c-2.5,2.5-6.2,5-11.2,6.9s-11.2,3.1-18.7,3.1c-10.6,0-19.4-3.7-26.2-10.6
			c-6.9-7.5-10-16.9-10-28.1v-2.5c0-11.9,3.1-21.9,10-29.4c6.9-7.5,15.6-11.2,26.2-11.2c6.2,0,11.9,1.2,16.9,3.1s9.4,4.4,13.1,8.1
			V113h-11.9l-2.5-10.6c-1.2-1.2-3.1-2.5-5.6-3.1c-2.5-0.6-5-1.2-8.1-1.2c-6.9,0-12.5,2.5-16.2,7.5s-5.6,11.9-5.6,20v3.1
			c0,8.1,1.9,14.4,5.6,19.4c3.7,5,9.4,7.5,16.2,7.5c3.1,0,5.6,0,7.5-0.6c1.9-0.6,3.7-1.2,5-1.9v-13.7l-11.2-0.6v-11.2h27.5v30h-0.8
			V157.3z"/>
	</g>
	<path class="st0" d="M769.4,527.7h-173c11.9-7.5,20-20.6,20-35V3.1c0-1.9-1.2-3.1-3.1-3.1H236c-1.9,0-3.1,1.2-3.1,3.1v102.4h-73.7
		c-1.9,0-3.1,1.2-3.1,3.1v383.5c0,15,8.1,28.1,20,35H3.1c-1.9,0-3.1,1.2-3.1,3.1c0,1.9,1.2,3.1,3.1,3.1H198h377.3h194.9
		c1.9,0,3.1-1.2,3.1-3.1C773.2,528.4,771.3,527.7,769.4,527.7z M239.1,492.1V108.6V5.6h371v486.6c0,19.4-15.6,35-35,35H219.8
		C231.6,520.2,239.1,507.1,239.1,492.1z M162.3,492.1V111.7h70.6v380.4c0,19.4-15.6,35-35.6,35C178.5,527.7,162.3,512.1,162.3,492.1
		z"/>
</g>
</svg>
