<?xml version="1.0" encoding="utf-8"?>
<!-- Generator: Adobe Illustrator 20.0.0, SVG Export Plug-In . SVG Version: 6.00 Build 0)  -->
<svg version="1.1" id="Layer_1" xmlns="http://www.w3.org/2000/svg" xmlns:xlink="http://www.w3.org/1999/xlink" x="0px" y="0px"
	 viewBox="0 0 834.3 569.9" style="enable-background:new 0 0 834.3 569.9;" xml:space="preserve">
<style type="text/css">
	.st0{fill:#FFFFFF;}
</style>
<g>
	<path class="st0" d="M783.7,97.9H571.8V52.3c0-28.4-23.7-52.3-52.3-52.3H318.3C289.9,0,266,23.7,266,52.3v45.6h-76
		c0-2.9,0-4.7,0-6.7c0-21.9-18.1-39.8-39.8-39.8h-21.9c-21.9,0-39.8,18.1-39.8,39.8c0,1.8,0,3.8,0,6.7h-36
		C23.9,97.9,0,121.7,0,150.3V516c0,28.4,23.7,52.3,52.3,52.3h729.6c28.4,0,52.3-23.7,52.3-52.3V150.3
		C836,121.7,813.2,97.9,783.7,97.9z M129.3,61.9H151c16.1,0,30.4,13.2,30.4,30.4c0,1.8,0,3.8,0,6.7H99.8c0-2.9,0-4.7,0-6.7
		C98.9,75.1,113,61.9,129.3,61.9z M11.4,150.3c0-23.7,19-42.7,42.7-42.7h222.3V52.5c0-23.7,19-42.7,42.7-42.7h201.4
		c23.7,0,42.7,19,42.7,42.7v55.1h221.3c23.7,0,42.7,19,42.7,42.7v140.5H578.5c-15.2-74.1-80.8-130.2-159.5-130.2
		s-144.3,56.1-159.5,130.2h-249V150.3H11.4z M571.8,323.2c0,84.6-68.4,153-153,153s-153-68.4-153-153s68.4-153,153-153
		S571.8,238.6,571.8,323.2z M826.4,516c0,23.7-19,42.7-42.7,42.7H54.1c-23.7,0-42.7-19-42.7-42.7V300.4h247
		c-0.9,7.6-1.8,15.2-1.8,22.8c0,89.3,73.2,162.4,162.4,162.4s162.4-73.2,162.4-162.4c0-7.6-0.9-15.2-1.8-22.8h247L826.4,516
		L826.4,516z"/>
	<path class="st0" d="M419,218.7c-57.9,0-104.5,46.5-104.5,104.5S361.1,427.7,419,427.7s104.5-46.5,104.5-104.5
		S476.9,218.7,419,218.7z M419,418.1c-52.3,0-95.1-42.7-95.1-95.1S366.7,228,419,228s95.1,42.7,95.1,95.1S471.2,418.1,419,418.1z"/>
	<path class="st0" d="M666.9,228.1h60.8c19,0,34.2-15.2,34.2-34.2s-15.2-34.2-34.2-34.2h-60.8c-19,0-34.2,15.2-34.2,34.2
		S647.9,228.1,666.9,228.1z M666.9,170.2h60.8c13.2,0,24.6,10.5,24.6,24.6c0,14.3-10.5,24.6-24.6,24.6h-60.8
		c-13.2,0-24.6-10.5-24.6-24.6C642.3,180.7,652.6,170.2,666.9,170.2z"/>
</g>
</svg>
