<?xml version="1.0" encoding="utf-8"?>
<!-- Generator: Adobe Illustrator 20.0.0, SVG Export Plug-In . SVG Version: 6.00 Build 0)  -->
<svg version="1.1" id="Layer_1" xmlns="http://www.w3.org/2000/svg" xmlns:xlink="http://www.w3.org/1999/xlink" x="0px" y="0px"
	 viewBox="0 0 773.3 536.3" style="enable-background:new 0 0 773.3 536.3;" xml:space="preserve">
<style type="text/css">
	.st0{fill:#FFFFFF;}
</style>
<g>
	<path class="st0" d="M292.2,212.4h264.2c1.9,0,3.1-1.2,3.1-3.1V43.7c0-1.9-1.2-3.1-3.1-3.1H292.2c-1.9,0-3.1,1.2-3.1,3.1v165.5
		C289.1,211.1,290.4,212.4,292.2,212.4z M295.4,46.9h258v159.3h-258V46.9z"/>
	<path class="st0" d="M292.2,433.5h117.4c1.9,0,3.1-1.2,3.1-3.1V326.7c0-1.9-1.2-3.1-3.1-3.1H292.2c-1.9,0-3.1,1.2-3.1,3.1v103.1
		C289.1,431.6,290.4,433.5,292.2,433.5z M295.4,329.8h111.2v96.8H295.4V329.8z"/>
	<path class="st0" d="M556.4,263.6H439c-1.9,0-3.1,1.2-3.1,3.1s1.2,3.1,3.1,3.1h117.4c1.9,0,3.1-1.2,3.1-3.1
		S558.3,263.6,556.4,263.6z"/>
	<path class="st0" d="M556.4,289.2H439c-1.9,0-3.1,1.2-3.1,3.1s1.2,3.1,3.1,3.1h117.4c1.9,0,3.1-1.2,3.1-3.1
		S558.3,289.2,556.4,289.2z"/>
	<path class="st0" d="M556.4,238H439c-1.9,0-3.1,1.2-3.1,3.1s1.2,3.1,3.1,3.1h117.4c1.9,0,3.1-1.2,3.1-3.1
		C559.6,239.3,558.3,238,556.4,238z"/>
	<path class="st0" d="M556.4,349.8H439c-1.9,0-3.1,1.2-3.1,3.1s1.2,3.1,3.1,3.1h117.4c1.9,0,3.1-1.2,3.1-3.1
		S558.3,349.8,556.4,349.8z"/>
	<path class="st0" d="M556.4,323.6H439c-1.9,0-3.1,1.2-3.1,3.1s1.2,3.1,3.1,3.1h117.4c1.9,0,3.1-1.2,3.1-3.1
		S558.3,323.6,556.4,323.6z"/>
	<path class="st0" d="M556.4,401H439c-1.9,0-3.1,1.2-3.1,3.1s1.2,3.1,3.1,3.1h117.4c1.9,0,3.1-1.2,3.1-3.1S558.3,401,556.4,401z"/>
	<path class="st0" d="M556.4,375.4H439c-1.9,0-3.1,1.2-3.1,3.1s1.2,3.1,3.1,3.1h117.4c1.9,0,3.1-1.2,3.1-3.1
		S558.3,375.4,556.4,375.4z"/>
	<path class="st0" d="M292.2,459.1h264.2c1.9,0,3.1-1.2,3.1-3.1s-1.2-3.1-3.1-3.1H292.2c-1.9,0-3.1,1.2-3.1,3.1
		S290.4,459.1,292.2,459.1z"/>
	<path class="st0" d="M292.2,484.7h264.2c1.9,0,3.1-1.2,3.1-3.1c0-1.9-1.2-3.1-3.1-3.1H292.2c-1.9,0-3.1,1.2-3.1,3.1
		C289.1,483.5,290.4,484.7,292.2,484.7z"/>
	<path class="st0" d="M556.4,427.3H439c-1.9,0-3.1,1.2-3.1,3.1s1.2,3.1,3.1,3.1h117.4c1.9,0,3.1-1.2,3.1-3.1
		S558.3,427.3,556.4,427.3z"/>
	<path class="st0" d="M292.2,269.9h117.4c1.9,0,3.1-1.2,3.1-3.1s-1.2-3.1-3.1-3.1H292.2c-1.9,0-3.1,1.2-3.1,3.1
		S290.4,269.9,292.2,269.9z"/>
	<path class="st0" d="M292.2,295.5h117.4c1.9,0,3.1-1.2,3.1-3.1s-1.2-3.1-3.1-3.1H292.2c-1.9,0-3.1,1.2-3.1,3.1
		S290.4,295.5,292.2,295.5z"/>
	<path class="st0" d="M292.2,244.3h117.4c1.9,0,3.1-1.2,3.1-3.1s-1.2-3.1-3.1-3.1H292.2c-1.9,0-3.1,1.2-3.1,3.1
		C289.1,243,290.4,244.3,292.2,244.3z"/>
	<g>
		<path class="st0" d="M347.2,86.8v9.4l-8.7,1.9V140c0,5,1.2,9.4,4.4,11.9s6.9,3.7,11.9,3.7s8.7-1.2,11.9-3.7s4.4-6.2,4.4-11.9V98.1
			l-8.7-1.9v-9.4h33.1v9.4l-8.7,1.9V140c0,8.7-3.1,15.6-8.7,20.6s-13.7,7.5-23.1,7.5s-17.5-2.5-23.1-7.5s-8.7-11.9-8.7-20.6V98.1
			l-8.7-1.9v-9.4h8.7h16.2C339.4,86.8,347.2,86.8,347.2,86.8z"/>
		<path class="st0" d="M460.9,112.5H449l-1.9-11.2c-1.2-0.6-3.1-1.9-6.2-2.5s-5.6-1.2-8.7-1.2c-4.4,0-7.5,0.6-10,2.5
			s-3.7,4.4-3.7,6.9s1.2,5,3.7,6.9s6.9,3.7,13.1,5.6c8.7,2.5,15.6,5.6,20,10c4.4,3.7,6.9,9.4,6.9,15.6c0,6.9-2.5,12.5-8.1,16.2
			s-12.5,5.6-21.2,5.6c-6.2,0-11.9-1.2-16.9-3.1c-5-1.9-9.4-5-12.5-8.1v-16.2H416l1.9,11.2c1.9,1.2,3.7,2.5,6.2,3.1s5.6,1.2,9.4,1.2
			c4.4,0,7.5-0.6,10-2.5s3.1-4.4,3.1-6.9c0-3.1-1.2-5.6-3.1-7.5s-6.2-3.7-11.2-5c-9.4-2.5-16.9-6.2-21.2-10c-5-3.7-7.5-8.7-7.5-15.6
			c0-6.2,2.5-11.9,8.1-15.6c5.6-4.4,12.5-6.2,20.6-6.2c6.2,0,11.9,0.6,16.9,2.5s9.4,4.4,12.5,7.5v16.9h-0.8V112.5z"/>
		<path class="st0" d="M534,157.4c-2.5,2.5-6.2,5-11.2,6.9s-11.2,3.1-18.7,3.1c-10.6,0-19.4-3.7-26.2-10.6c-6.9-7.5-10-16.9-10-28.1
			v-2.5c0-11.9,3.1-21.9,10-29.4c6.9-7.5,15.6-11.2,26.2-11.2c6.2,0,11.9,1.2,16.9,3.1s9.4,4.4,13.1,8.1V113h-11.9l-2.5-10.6
			c-1.2-1.2-3.1-2.5-5.6-3.1c-2.5-0.6-5-1.2-8.1-1.2c-6.9,0-12.5,2.5-16.2,7.5s-5.6,11.9-5.6,20v3.1c0,8.1,1.9,14.4,5.6,19.4
			s9.4,7.5,16.2,7.5c3.1,0,5.6,0,7.5-0.6c1.9-0.6,3.7-1.2,4.4-1.9v-13.7l-11.2-0.6v-11.9h27.5L534,157.4L534,157.4z"/>
	</g>
	<path class="st0" d="M769.4,527.8h-173c11.9-7.5,20-20.6,20-35V3.1c0-1.9-1.2-3.1-3.1-3.1H236c-1.9,0-3.1,1.2-3.1,3.1v103.1h-73.7
		c-1.9,0-3.1,1.2-3.1,3.1v383.5c0,15,8.1,28.1,20,35H3.1c-1.9,0-3.1,1.2-3.1,3.1c0,1.9,1.2,3.1,3.1,3.1H198h377.3h194.9
		c1.9,0,3.1-1.2,3.1-3.1C773.2,529.1,770.7,527.8,769.4,527.8z M239.1,492.9V109.3V6.3h371v486.6c0,19.4-15.6,35-35,35H219.8
		C231,520.3,239.1,507.2,239.1,492.9z M162.3,492.9V112.5h70.6v380.4c0,19.4-15.6,35-35.6,35C177.9,527.8,162.3,512.2,162.3,492.9z"
		/>
</g>
</svg>
